<?xml version="1.0" encoding="utf-8"?>
<!-- Generator: Adobe Illustrator 26.0.1, SVG Export Plug-In . SVG Version: 6.00 Build 0)  -->
<svg version="1.1" id="Layer_1" xmlns="http://www.w3.org/2000/svg" xmlns:xlink="http://www.w3.org/1999/xlink" x="0px" y="0px"
	 viewBox="0 0 49 207" style="enable-background:new 0 0 49 207;" xml:space="preserve">
<style type="text/css">
	.st0{clip-path:url(#SVGID_00000076576132179860647120000007991773732636053683_);fill:#0DD0FF;}
	.st1{clip-path:url(#SVGID_00000076576132179860647120000007991773732636053683_);fill:#0DCFFE;}
	.st2{clip-path:url(#SVGID_00000076576132179860647120000007991773732636053683_);fill:#0DCEFD;}
	.st3{clip-path:url(#SVGID_00000076576132179860647120000007991773732636053683_);fill:#0DCDFC;}
	.st4{clip-path:url(#SVGID_00000076576132179860647120000007991773732636053683_);fill:#0DCCFB;}
	.st5{clip-path:url(#SVGID_00000076576132179860647120000007991773732636053683_);fill:#0ECBFA;}
	.st6{clip-path:url(#SVGID_00000076576132179860647120000007991773732636053683_);fill:#0ECAF9;}
	.st7{clip-path:url(#SVGID_00000076576132179860647120000007991773732636053683_);fill:#0EC9F8;}
	.st8{clip-path:url(#SVGID_00000076576132179860647120000007991773732636053683_);fill:#0EC8F7;}
	.st9{clip-path:url(#SVGID_00000076576132179860647120000007991773732636053683_);fill:#0EC7F6;}
	.st10{clip-path:url(#SVGID_00000076576132179860647120000007991773732636053683_);fill:#0EC6F5;}
	.st11{clip-path:url(#SVGID_00000076576132179860647120000007991773732636053683_);fill:#0EC5F4;}
	.st12{clip-path:url(#SVGID_00000076576132179860647120000007991773732636053683_);fill:#0EC4F3;}
	.st13{clip-path:url(#SVGID_00000076576132179860647120000007991773732636053683_);fill:#0FC3F2;}
	.st14{clip-path:url(#SVGID_00000076576132179860647120000007991773732636053683_);fill:#0FC2F1;}
	.st15{clip-path:url(#SVGID_00000076576132179860647120000007991773732636053683_);fill:#0FC1F0;}
	.st16{clip-path:url(#SVGID_00000076576132179860647120000007991773732636053683_);fill:#0FC0EF;}
	.st17{clip-path:url(#SVGID_00000076576132179860647120000007991773732636053683_);fill:#0FBFEE;}
	.st18{clip-path:url(#SVGID_00000076576132179860647120000007991773732636053683_);fill:#0FBEED;}
	.st19{clip-path:url(#SVGID_00000076576132179860647120000007991773732636053683_);fill:#0FBDED;}
	.st20{clip-path:url(#SVGID_00000076576132179860647120000007991773732636053683_);fill:#0FBCEC;}
	.st21{clip-path:url(#SVGID_00000076576132179860647120000007991773732636053683_);fill:#10BBEB;}
	.st22{clip-path:url(#SVGID_00000076576132179860647120000007991773732636053683_);fill:#10BAEA;}
	.st23{clip-path:url(#SVGID_00000076576132179860647120000007991773732636053683_);fill:#10B9E9;}
	.st24{clip-path:url(#SVGID_00000076576132179860647120000007991773732636053683_);fill:#10B8E8;}
	.st25{clip-path:url(#SVGID_00000076576132179860647120000007991773732636053683_);fill:#10B7E7;}
	.st26{clip-path:url(#SVGID_00000076576132179860647120000007991773732636053683_);fill:#10B6E6;}
	.st27{clip-path:url(#SVGID_00000076576132179860647120000007991773732636053683_);fill:#10B5E5;}
	.st28{clip-path:url(#SVGID_00000076576132179860647120000007991773732636053683_);fill:#10B4E4;}
	.st29{clip-path:url(#SVGID_00000076576132179860647120000007991773732636053683_);fill:#10B3E3;}
	.st30{clip-path:url(#SVGID_00000076576132179860647120000007991773732636053683_);fill:#11B2E2;}
	.st31{clip-path:url(#SVGID_00000076576132179860647120000007991773732636053683_);fill:#11B1E1;}
	.st32{clip-path:url(#SVGID_00000076576132179860647120000007991773732636053683_);fill:#11B0E0;}
	.st33{clip-path:url(#SVGID_00000076576132179860647120000007991773732636053683_);fill:#11AFDF;}
	.st34{clip-path:url(#SVGID_00000076576132179860647120000007991773732636053683_);fill:#11AEDE;}
	.st35{clip-path:url(#SVGID_00000076576132179860647120000007991773732636053683_);fill:#11ADDD;}
	.st36{clip-path:url(#SVGID_00000076576132179860647120000007991773732636053683_);fill:#11ACDC;}
	.st37{clip-path:url(#SVGID_00000076576132179860647120000007991773732636053683_);fill:#11ABDB;}
	.st38{clip-path:url(#SVGID_00000076576132179860647120000007991773732636053683_);fill:#12AADA;}
	.st39{clip-path:url(#SVGID_00000076576132179860647120000007991773732636053683_);fill:#12A9D9;}
	.st40{clip-path:url(#SVGID_00000076576132179860647120000007991773732636053683_);fill:#12A8D8;}
	.st41{clip-path:url(#SVGID_00000076576132179860647120000007991773732636053683_);fill:#12A7D7;}
	.st42{clip-path:url(#SVGID_00000076576132179860647120000007991773732636053683_);fill:#12A6D6;}
	.st43{clip-path:url(#SVGID_00000076576132179860647120000007991773732636053683_);fill:#12A5D5;}
	.st44{clip-path:url(#SVGID_00000076576132179860647120000007991773732636053683_);fill:#12A4D4;}
	.st45{clip-path:url(#SVGID_00000076576132179860647120000007991773732636053683_);fill:#12A3D3;}
	.st46{clip-path:url(#SVGID_00000076576132179860647120000007991773732636053683_);fill:#13A2D2;}
	.st47{clip-path:url(#SVGID_00000076576132179860647120000007991773732636053683_);fill:#13A1D1;}
	.st48{clip-path:url(#SVGID_00000076576132179860647120000007991773732636053683_);fill:#13A0D0;}
	.st49{clip-path:url(#SVGID_00000076576132179860647120000007991773732636053683_);fill:#139FCF;}
	.st50{clip-path:url(#SVGID_00000076576132179860647120000007991773732636053683_);fill:#139ECE;}
	.st51{clip-path:url(#SVGID_00000076576132179860647120000007991773732636053683_);fill:#139DCD;}
	.st52{clip-path:url(#SVGID_00000076576132179860647120000007991773732636053683_);fill:#139CCC;}
	.st53{clip-path:url(#SVGID_00000076576132179860647120000007991773732636053683_);fill:#139BCB;}
	.st54{clip-path:url(#SVGID_00000076576132179860647120000007991773732636053683_);fill:#139ACA;}
	.st55{clip-path:url(#SVGID_00000076576132179860647120000007991773732636053683_);fill:#1499C9;}
	.st56{clip-path:url(#SVGID_00000076576132179860647120000007991773732636053683_);fill:#1498C8;}
	.st57{clip-path:url(#SVGID_00000076576132179860647120000007991773732636053683_);fill:#1497C8;}
	.st58{clip-path:url(#SVGID_00000076576132179860647120000007991773732636053683_);fill:#1496C7;}
	.st59{clip-path:url(#SVGID_00000076576132179860647120000007991773732636053683_);fill:#1495C6;}
	.st60{clip-path:url(#SVGID_00000076576132179860647120000007991773732636053683_);fill:#1494C5;}
	.st61{clip-path:url(#SVGID_00000076576132179860647120000007991773732636053683_);fill:#1493C4;}
	.st62{clip-path:url(#SVGID_00000076576132179860647120000007991773732636053683_);fill:#1492C3;}
	.st63{clip-path:url(#SVGID_00000076576132179860647120000007991773732636053683_);fill:#1591C2;}
	.st64{clip-path:url(#SVGID_00000076576132179860647120000007991773732636053683_);fill:#1590C1;}
	.st65{clip-path:url(#SVGID_00000076576132179860647120000007991773732636053683_);fill:#158FC0;}
	.st66{clip-path:url(#SVGID_00000076576132179860647120000007991773732636053683_);fill:#158EBF;}
	.st67{clip-path:url(#SVGID_00000076576132179860647120000007991773732636053683_);fill:#158DBE;}
	.st68{clip-path:url(#SVGID_00000076576132179860647120000007991773732636053683_);fill:#158CBD;}
	.st69{clip-path:url(#SVGID_00000076576132179860647120000007991773732636053683_);fill:#158BBC;}
	.st70{clip-path:url(#SVGID_00000076576132179860647120000007991773732636053683_);fill:#158ABB;}
	.st71{clip-path:url(#SVGID_00000076576132179860647120000007991773732636053683_);fill:#1689BA;}
	.st72{clip-path:url(#SVGID_00000076576132179860647120000007991773732636053683_);fill:#1688B9;}
	.st73{clip-path:url(#SVGID_00000076576132179860647120000007991773732636053683_);fill:#1687B8;}
	.st74{clip-path:url(#SVGID_00000076576132179860647120000007991773732636053683_);fill:#1686B7;}
	.st75{clip-path:url(#SVGID_00000076576132179860647120000007991773732636053683_);fill:#1685B6;}
	.st76{clip-path:url(#SVGID_00000076576132179860647120000007991773732636053683_);fill:#1683B5;}
	.st77{clip-path:url(#SVGID_00000076576132179860647120000007991773732636053683_);fill:#1682B4;}
	.st78{clip-path:url(#SVGID_00000076576132179860647120000007991773732636053683_);fill:#1681B3;}
	.st79{clip-path:url(#SVGID_00000076576132179860647120000007991773732636053683_);fill:#1680B2;}
	.st80{clip-path:url(#SVGID_00000076576132179860647120000007991773732636053683_);fill:#177FB1;}
	.st81{clip-path:url(#SVGID_00000076576132179860647120000007991773732636053683_);fill:#177EB0;}
	.st82{clip-path:url(#SVGID_00000076576132179860647120000007991773732636053683_);fill:#177DAF;}
	.st83{clip-path:url(#SVGID_00000076576132179860647120000007991773732636053683_);fill:#177CAE;}
	.st84{clip-path:url(#SVGID_00000076576132179860647120000007991773732636053683_);fill:#177BAD;}
	.st85{clip-path:url(#SVGID_00000076576132179860647120000007991773732636053683_);fill:#177AAC;}
	.st86{clip-path:url(#SVGID_00000076576132179860647120000007991773732636053683_);fill:#1779AB;}
	.st87{clip-path:url(#SVGID_00000076576132179860647120000007991773732636053683_);fill:#1778AA;}
	.st88{clip-path:url(#SVGID_00000076576132179860647120000007991773732636053683_);fill:#1877A9;}
	.st89{clip-path:url(#SVGID_00000076576132179860647120000007991773732636053683_);fill:#1876A8;}
	.st90{clip-path:url(#SVGID_00000076576132179860647120000007991773732636053683_);fill:#1875A7;}
	.st91{clip-path:url(#SVGID_00000076576132179860647120000007991773732636053683_);fill:#1874A6;}
	.st92{clip-path:url(#SVGID_00000076576132179860647120000007991773732636053683_);fill:#1873A5;}
	.st93{clip-path:url(#SVGID_00000076576132179860647120000007991773732636053683_);fill:#1872A4;}
	.st94{clip-path:url(#SVGID_00000076576132179860647120000007991773732636053683_);fill:#1871A4;}
	.st95{clip-path:url(#SVGID_00000076576132179860647120000007991773732636053683_);fill:#1870A3;}
	.st96{clip-path:url(#SVGID_00000076576132179860647120000007991773732636053683_);fill:#196FA2;}
	.st97{clip-path:url(#SVGID_00000076576132179860647120000007991773732636053683_);fill:#196EA1;}
	.st98{clip-path:url(#SVGID_00000076576132179860647120000007991773732636053683_);fill:#196DA0;}
	.st99{clip-path:url(#SVGID_00000076576132179860647120000007991773732636053683_);fill:#196C9F;}
	.st100{clip-path:url(#SVGID_00000076576132179860647120000007991773732636053683_);fill:#196B9E;}
	.st101{clip-path:url(#SVGID_00000076576132179860647120000007991773732636053683_);fill:#196A9D;}
	.st102{clip-path:url(#SVGID_00000076576132179860647120000007991773732636053683_);fill:#19699C;}
	.st103{clip-path:url(#SVGID_00000076576132179860647120000007991773732636053683_);fill:#19689B;}
	.st104{clip-path:url(#SVGID_00000076576132179860647120000007991773732636053683_);fill:#19679A;}
	.st105{clip-path:url(#SVGID_00000076576132179860647120000007991773732636053683_);fill:#1A6699;}
	.st106{clip-path:url(#SVGID_00000076576132179860647120000007991773732636053683_);fill:#1A6598;}
	.st107{clip-path:url(#SVGID_00000076576132179860647120000007991773732636053683_);fill:#1A6497;}
	.st108{clip-path:url(#SVGID_00000076576132179860647120000007991773732636053683_);fill:#1A6396;}
	.st109{clip-path:url(#SVGID_00000076576132179860647120000007991773732636053683_);fill:#1A6295;}
	.st110{clip-path:url(#SVGID_00000076576132179860647120000007991773732636053683_);fill:#1A6194;}
	.st111{clip-path:url(#SVGID_00000076576132179860647120000007991773732636053683_);fill:#1A6093;}
	.st112{clip-path:url(#SVGID_00000076576132179860647120000007991773732636053683_);fill:#1A5F92;}
	.st113{clip-path:url(#SVGID_00000076576132179860647120000007991773732636053683_);fill:#1B5E91;}
	.st114{clip-path:url(#SVGID_00000076576132179860647120000007991773732636053683_);fill:#1B5D90;}
	.st115{clip-path:url(#SVGID_00000076576132179860647120000007991773732636053683_);fill:#1B5C8F;}
	.st116{clip-path:url(#SVGID_00000076576132179860647120000007991773732636053683_);fill:#1B5B8E;}
	.st117{clip-path:url(#SVGID_00000076576132179860647120000007991773732636053683_);fill:#1B5A8D;}
	.st118{clip-path:url(#SVGID_00000076576132179860647120000007991773732636053683_);fill:#1B598C;}
	.st119{clip-path:url(#SVGID_00000076576132179860647120000007991773732636053683_);fill:#1B588B;}
	.st120{clip-path:url(#SVGID_00000076576132179860647120000007991773732636053683_);fill:#1B578A;}
	.st121{clip-path:url(#SVGID_00000076576132179860647120000007991773732636053683_);fill:#1C5689;}
	.st122{clip-path:url(#SVGID_00000076576132179860647120000007991773732636053683_);fill:#1C5588;}
	.st123{clip-path:url(#SVGID_00000076576132179860647120000007991773732636053683_);fill:#1C5487;}
	.st124{clip-path:url(#SVGID_00000076576132179860647120000007991773732636053683_);fill:#1C5386;}
	.st125{clip-path:url(#SVGID_00000076576132179860647120000007991773732636053683_);fill:#1C5285;}
	.st126{clip-path:url(#SVGID_00000076576132179860647120000007991773732636053683_);fill:#1C5184;}
	.st127{clip-path:url(#SVGID_00000076576132179860647120000007991773732636053683_);fill:#1C5083;}
	.st128{clip-path:url(#SVGID_00000076576132179860647120000007991773732636053683_);fill:#1C4F82;}
	.st129{clip-path:url(#SVGID_00000076576132179860647120000007991773732636053683_);fill:#1C4E81;}
	.st130{clip-path:url(#SVGID_00000076576132179860647120000007991773732636053683_);fill:#1D4D80;}
	.st131{clip-path:url(#SVGID_00000076576132179860647120000007991773732636053683_);fill:#1D4C7F;}
	.st132{clip-path:url(#SVGID_00000076576132179860647120000007991773732636053683_);fill:#1D4B7F;}
	.st133{clip-path:url(#SVGID_00000076576132179860647120000007991773732636053683_);fill:#1D4A7E;}
	.st134{clip-path:url(#SVGID_00000076576132179860647120000007991773732636053683_);fill:#1D497D;}
	.st135{clip-path:url(#SVGID_00000076576132179860647120000007991773732636053683_);fill:#1D487C;}
	.st136{clip-path:url(#SVGID_00000076576132179860647120000007991773732636053683_);fill:#1D477B;}
	.st137{clip-path:url(#SVGID_00000076576132179860647120000007991773732636053683_);fill:#1D467A;}
	.st138{clip-path:url(#SVGID_00000076576132179860647120000007991773732636053683_);fill:#1E4579;}
	.st139{clip-path:url(#SVGID_00000076576132179860647120000007991773732636053683_);fill:#1E4478;}
	.st140{clip-path:url(#SVGID_00000076576132179860647120000007991773732636053683_);fill:#1E4377;}
	.st141{clip-path:url(#SVGID_00000076576132179860647120000007991773732636053683_);fill:#1E4276;}
	.st142{clip-path:url(#SVGID_00000076576132179860647120000007991773732636053683_);fill:#1E4175;}
	.st143{clip-path:url(#SVGID_00000076576132179860647120000007991773732636053683_);fill:#1E4074;}
	.st144{clip-path:url(#SVGID_00000076576132179860647120000007991773732636053683_);fill:#1E3F73;}
	.st145{clip-path:url(#SVGID_00000076576132179860647120000007991773732636053683_);fill:#1E3E72;}
	.st146{clip-path:url(#SVGID_00000076576132179860647120000007991773732636053683_);fill:#1F3D71;}
	.st147{clip-path:url(#SVGID_00000076576132179860647120000007991773732636053683_);fill:#1F3C70;}
	.st148{clip-path:url(#SVGID_00000076576132179860647120000007991773732636053683_);fill:#1F3B6F;}
	.st149{clip-path:url(#SVGID_00000076576132179860647120000007991773732636053683_);fill:#1F3A6E;}
	.st150{clip-path:url(#SVGID_00000076576132179860647120000007991773732636053683_);fill:#1F396D;}
	.st151{enable-background:new    ;}
	.st152{fill:#FFFFFF;}
</style>
<g id="Group_35005" transform="translate(0 -204)">
	<g id="Group_34888" transform="translate(-215.5 -1604.5)">
		<g id="Rectangle_409">
			<g>
				<defs>
					<rect id="SVGID_1_" x="215.5" y="1808.5" width="49" height="207"/>
				</defs>
				<clipPath id="SVGID_00000137811489932591780260000016569609175090668179_">
					<use xlink:href="#SVGID_1_"  style="overflow:visible;"/>
				</clipPath>
				<polygon style="clip-path:url(#SVGID_00000137811489932591780260000016569609175090668179_);fill:#0DD0FF;" points="
					264.5,1809.3 243.9,1808.5 264.5,1808.5 				"/>
				<polygon style="clip-path:url(#SVGID_00000137811489932591780260000016569609175090668179_);fill:#0DD0FF;" points="
					264.5,1810.7 215.5,1808.8 215.5,1808.5 243.9,1808.5 264.5,1809.3 				"/>
				<polygon style="clip-path:url(#SVGID_00000137811489932591780260000016569609175090668179_);fill:#0DCFFE;" points="264.5,1812 
					215.5,1810.2 215.5,1808.8 264.5,1810.7 				"/>
				<polygon style="clip-path:url(#SVGID_00000137811489932591780260000016569609175090668179_);fill:#0DCEFD;" points="
					264.5,1813.4 215.5,1811.5 215.5,1810.2 264.5,1812 				"/>
				<polygon style="clip-path:url(#SVGID_00000137811489932591780260000016569609175090668179_);fill:#0DCDFC;" points="
					264.5,1814.8 215.5,1812.9 215.5,1811.5 264.5,1813.4 				"/>
				<polygon style="clip-path:url(#SVGID_00000137811489932591780260000016569609175090668179_);fill:#0DCCFB;" points="
					264.5,1816.1 215.5,1814.3 215.5,1812.9 264.5,1814.8 				"/>
				<polygon style="clip-path:url(#SVGID_00000137811489932591780260000016569609175090668179_);fill:#0ECBFA;" points="
					264.5,1817.5 215.5,1815.6 215.5,1814.3 264.5,1816.1 				"/>
				<polygon style="clip-path:url(#SVGID_00000137811489932591780260000016569609175090668179_);fill:#0ECAF9;" points="
					264.5,1818.9 215.5,1817 215.5,1815.6 264.5,1817.5 				"/>
				<polygon style="clip-path:url(#SVGID_00000137811489932591780260000016569609175090668179_);fill:#0EC9F8;" points="
					264.5,1820.3 215.5,1818.4 215.5,1817 264.5,1818.9 				"/>
				<polygon style="clip-path:url(#SVGID_00000137811489932591780260000016569609175090668179_);fill:#0EC8F7;" points="
					264.5,1821.6 215.5,1819.8 215.5,1818.4 264.5,1820.3 				"/>
				<polygon style="clip-path:url(#SVGID_00000137811489932591780260000016569609175090668179_);fill:#0EC7F6;" points="264.5,1823 
					215.5,1821.1 215.5,1819.8 264.5,1821.6 				"/>
				<polygon style="clip-path:url(#SVGID_00000137811489932591780260000016569609175090668179_);fill:#0EC6F5;" points="
					264.5,1824.4 215.5,1822.5 215.5,1821.1 264.5,1823 				"/>
				<polygon style="clip-path:url(#SVGID_00000137811489932591780260000016569609175090668179_);fill:#0EC5F4;" points="
					264.5,1825.7 215.5,1823.9 215.5,1822.5 264.5,1824.4 				"/>
				<polygon style="clip-path:url(#SVGID_00000137811489932591780260000016569609175090668179_);fill:#0EC4F3;" points="
					264.5,1827.1 215.5,1825.2 215.5,1823.9 264.5,1825.7 				"/>
				<polygon style="clip-path:url(#SVGID_00000137811489932591780260000016569609175090668179_);fill:#0FC3F2;" points="
					264.5,1828.5 215.5,1826.6 215.5,1825.2 264.5,1827.1 				"/>
				<polygon style="clip-path:url(#SVGID_00000137811489932591780260000016569609175090668179_);fill:#0FC2F1;" points="
					264.5,1829.8 215.5,1828 215.5,1826.6 264.5,1828.5 				"/>
				<polygon style="clip-path:url(#SVGID_00000137811489932591780260000016569609175090668179_);fill:#0FC1F0;" points="
					264.5,1831.2 215.5,1829.4 215.5,1828 264.5,1829.8 				"/>
				<polygon style="clip-path:url(#SVGID_00000137811489932591780260000016569609175090668179_);fill:#0FC0EF;" points="
					264.5,1832.6 215.5,1830.7 215.5,1829.4 264.5,1831.2 				"/>
				<polygon style="clip-path:url(#SVGID_00000137811489932591780260000016569609175090668179_);fill:#0FBFEE;" points="264.5,1834 
					215.5,1832.1 215.5,1830.7 264.5,1832.6 				"/>
				<polygon style="clip-path:url(#SVGID_00000137811489932591780260000016569609175090668179_);fill:#0FBEED;" points="
					264.5,1835.3 215.5,1833.5 215.5,1832.1 264.5,1834 				"/>
				<polygon style="clip-path:url(#SVGID_00000137811489932591780260000016569609175090668179_);fill:#0FBDED;" points="
					264.5,1836.7 215.5,1834.8 215.5,1833.5 264.5,1835.3 				"/>
				<polygon style="clip-path:url(#SVGID_00000137811489932591780260000016569609175090668179_);fill:#0FBCEC;" points="
					264.5,1838.1 215.5,1836.2 215.5,1834.8 264.5,1836.7 				"/>
				<polygon style="clip-path:url(#SVGID_00000137811489932591780260000016569609175090668179_);fill:#10BBEB;" points="
					264.5,1839.4 215.5,1837.6 215.5,1836.2 264.5,1838.1 				"/>
				<polygon style="clip-path:url(#SVGID_00000137811489932591780260000016569609175090668179_);fill:#10BAEA;" points="
					264.5,1840.8 215.5,1839 215.5,1837.6 264.5,1839.4 				"/>
				<polygon style="clip-path:url(#SVGID_00000137811489932591780260000016569609175090668179_);fill:#10B9E9;" points="
					264.5,1842.2 215.5,1840.3 215.5,1839 264.5,1840.8 				"/>
				<polygon style="clip-path:url(#SVGID_00000137811489932591780260000016569609175090668179_);fill:#10B8E8;" points="
					264.5,1843.6 215.5,1841.7 215.5,1840.3 264.5,1842.2 				"/>
				<polygon style="clip-path:url(#SVGID_00000137811489932591780260000016569609175090668179_);fill:#10B7E7;" points="
					264.5,1844.9 215.5,1843.1 215.5,1841.7 264.5,1843.6 				"/>
				<polygon style="clip-path:url(#SVGID_00000137811489932591780260000016569609175090668179_);fill:#10B6E6;" points="
					264.5,1846.3 215.5,1844.4 215.5,1843.1 264.5,1844.9 				"/>
				<polygon style="clip-path:url(#SVGID_00000137811489932591780260000016569609175090668179_);fill:#10B5E5;" points="
					264.5,1847.7 215.5,1845.8 215.5,1844.4 264.5,1846.3 				"/>
				<polygon style="clip-path:url(#SVGID_00000137811489932591780260000016569609175090668179_);fill:#10B4E4;" points="264.5,1849 
					215.5,1847.2 215.5,1845.8 264.5,1847.7 				"/>
				<polygon style="clip-path:url(#SVGID_00000137811489932591780260000016569609175090668179_);fill:#10B3E3;" points="
					264.5,1850.4 215.5,1848.6 215.5,1847.2 264.5,1849 				"/>
				<polygon style="clip-path:url(#SVGID_00000137811489932591780260000016569609175090668179_);fill:#11B2E2;" points="
					264.5,1851.8 215.5,1849.9 215.5,1848.6 264.5,1850.4 				"/>
				<polygon style="clip-path:url(#SVGID_00000137811489932591780260000016569609175090668179_);fill:#11B1E1;" points="
					264.5,1853.2 215.5,1851.3 215.5,1849.9 264.5,1851.8 				"/>
				<polygon style="clip-path:url(#SVGID_00000137811489932591780260000016569609175090668179_);fill:#11B0E0;" points="
					264.5,1854.5 215.5,1852.7 215.5,1851.3 264.5,1853.2 				"/>
				<polygon style="clip-path:url(#SVGID_00000137811489932591780260000016569609175090668179_);fill:#11AFDF;" points="
					264.5,1855.9 215.5,1854 215.5,1852.7 264.5,1854.5 				"/>
				<polygon style="clip-path:url(#SVGID_00000137811489932591780260000016569609175090668179_);fill:#11AEDE;" points="
					264.5,1857.3 215.5,1855.4 215.5,1854 264.5,1855.9 				"/>
				<polygon style="clip-path:url(#SVGID_00000137811489932591780260000016569609175090668179_);fill:#11ADDD;" points="
					264.5,1858.6 215.5,1856.8 215.5,1855.4 264.5,1857.3 				"/>
				<polygon style="clip-path:url(#SVGID_00000137811489932591780260000016569609175090668179_);fill:#11ACDC;" points="264.5,1860 
					215.5,1858.1 215.5,1856.8 264.5,1858.6 				"/>
				<polygon style="clip-path:url(#SVGID_00000137811489932591780260000016569609175090668179_);fill:#11ABDB;" points="
					264.5,1861.4 215.5,1859.5 215.5,1858.1 264.5,1860 				"/>
				<polygon style="clip-path:url(#SVGID_00000137811489932591780260000016569609175090668179_);fill:#12AADA;" points="
					264.5,1862.8 215.5,1860.9 215.5,1859.5 264.5,1861.4 				"/>
				<polygon style="clip-path:url(#SVGID_00000137811489932591780260000016569609175090668179_);fill:#12A9D9;" points="
					264.5,1864.1 215.5,1862.3 215.5,1860.9 264.5,1862.8 				"/>
				<polygon style="clip-path:url(#SVGID_00000137811489932591780260000016569609175090668179_);fill:#12A8D8;" points="
					264.5,1865.5 215.5,1863.6 215.5,1862.3 264.5,1864.1 				"/>
				<polygon style="clip-path:url(#SVGID_00000137811489932591780260000016569609175090668179_);fill:#12A7D7;" points="
					264.5,1866.9 215.5,1865 215.5,1863.6 264.5,1865.5 				"/>
				<polygon style="clip-path:url(#SVGID_00000137811489932591780260000016569609175090668179_);fill:#12A6D6;" points="
					264.5,1868.2 215.5,1866.4 215.5,1865 264.5,1866.9 				"/>
				<polygon style="clip-path:url(#SVGID_00000137811489932591780260000016569609175090668179_);fill:#12A5D5;" points="
					264.5,1869.6 215.5,1867.7 215.5,1866.4 264.5,1868.2 				"/>
				<polygon style="clip-path:url(#SVGID_00000137811489932591780260000016569609175090668179_);fill:#12A4D4;" points="264.5,1871 
					215.5,1869.1 215.5,1867.7 264.5,1869.6 				"/>
				<polygon style="clip-path:url(#SVGID_00000137811489932591780260000016569609175090668179_);fill:#12A3D3;" points="
					264.5,1872.3 215.5,1870.5 215.5,1869.1 264.5,1871 				"/>
				<polygon style="clip-path:url(#SVGID_00000137811489932591780260000016569609175090668179_);fill:#13A2D2;" points="
					264.5,1873.7 215.5,1871.9 215.5,1870.5 264.5,1872.3 				"/>
				<polygon style="clip-path:url(#SVGID_00000137811489932591780260000016569609175090668179_);fill:#13A1D1;" points="
					264.5,1875.1 215.5,1873.2 215.5,1871.9 264.5,1873.7 				"/>
				<polygon style="clip-path:url(#SVGID_00000137811489932591780260000016569609175090668179_);fill:#13A0D0;" points="
					264.5,1876.5 215.5,1874.6 215.5,1873.2 264.5,1875.1 				"/>
				<polygon style="clip-path:url(#SVGID_00000137811489932591780260000016569609175090668179_);fill:#139FCF;" points="
					264.5,1877.8 215.5,1876 215.5,1874.6 264.5,1876.5 				"/>
				<polygon style="clip-path:url(#SVGID_00000137811489932591780260000016569609175090668179_);fill:#139ECE;" points="
					264.5,1879.2 215.5,1877.3 215.5,1876 264.5,1877.8 				"/>
				<polygon style="clip-path:url(#SVGID_00000137811489932591780260000016569609175090668179_);fill:#139DCD;" points="
					264.5,1880.6 215.5,1878.7 215.5,1877.3 264.5,1879.2 				"/>
				<polygon style="clip-path:url(#SVGID_00000137811489932591780260000016569609175090668179_);fill:#139CCC;" points="
					264.5,1881.9 215.5,1880.1 215.5,1878.7 264.5,1880.6 				"/>
				<polygon style="clip-path:url(#SVGID_00000137811489932591780260000016569609175090668179_);fill:#139BCB;" points="
					264.5,1883.3 215.5,1881.5 215.5,1880.1 264.5,1881.9 				"/>
				<polygon style="clip-path:url(#SVGID_00000137811489932591780260000016569609175090668179_);fill:#139ACA;" points="
					264.5,1884.7 215.5,1882.8 215.5,1881.5 264.5,1883.3 				"/>
				<polygon style="clip-path:url(#SVGID_00000137811489932591780260000016569609175090668179_);fill:#1499C9;" points="
					264.5,1886.1 215.5,1884.2 215.5,1882.8 264.5,1884.7 				"/>
				<polygon style="clip-path:url(#SVGID_00000137811489932591780260000016569609175090668179_);fill:#1498C8;" points="
					264.5,1887.4 215.5,1885.6 215.5,1884.2 264.5,1886.1 				"/>
				<polygon style="clip-path:url(#SVGID_00000137811489932591780260000016569609175090668179_);fill:#1497C8;" points="
					264.5,1888.8 215.5,1886.9 215.5,1885.6 264.5,1887.4 				"/>
				<polygon style="clip-path:url(#SVGID_00000137811489932591780260000016569609175090668179_);fill:#1496C7;" points="
					264.5,1890.2 215.5,1888.3 215.5,1886.9 264.5,1888.8 				"/>
				<polygon style="clip-path:url(#SVGID_00000137811489932591780260000016569609175090668179_);fill:#1495C6;" points="
					264.5,1891.5 215.5,1889.7 215.5,1888.3 264.5,1890.2 				"/>
				<polygon style="clip-path:url(#SVGID_00000137811489932591780260000016569609175090668179_);fill:#1494C5;" points="
					264.5,1892.9 215.5,1891.1 215.5,1889.7 264.5,1891.5 				"/>
				<polygon style="clip-path:url(#SVGID_00000137811489932591780260000016569609175090668179_);fill:#1493C4;" points="
					264.5,1894.3 215.5,1892.4 215.5,1891.1 264.5,1892.9 				"/>
				<polygon style="clip-path:url(#SVGID_00000137811489932591780260000016569609175090668179_);fill:#1492C3;" points="
					264.5,1895.7 215.5,1893.8 215.5,1892.4 264.5,1894.3 				"/>
				<polygon style="clip-path:url(#SVGID_00000137811489932591780260000016569609175090668179_);fill:#1591C2;" points="264.5,1897 
					215.5,1895.2 215.5,1893.8 264.5,1895.7 				"/>
				<polygon style="clip-path:url(#SVGID_00000137811489932591780260000016569609175090668179_);fill:#1590C1;" points="
					264.5,1898.4 215.5,1896.5 215.5,1895.2 264.5,1897 				"/>
				<polygon style="clip-path:url(#SVGID_00000137811489932591780260000016569609175090668179_);fill:#158FC0;" points="
					264.5,1899.8 215.5,1897.9 215.5,1896.5 264.5,1898.4 				"/>
				<polygon style="clip-path:url(#SVGID_00000137811489932591780260000016569609175090668179_);fill:#158EBF;" points="
					264.5,1901.1 215.5,1899.3 215.5,1897.9 264.5,1899.8 				"/>
				<polygon style="clip-path:url(#SVGID_00000137811489932591780260000016569609175090668179_);fill:#158DBE;" points="
					264.5,1902.5 215.5,1900.6 215.5,1899.3 264.5,1901.1 				"/>
				<polygon style="clip-path:url(#SVGID_00000137811489932591780260000016569609175090668179_);fill:#158CBD;" points="
					264.5,1903.9 215.5,1902 215.5,1900.6 264.5,1902.5 				"/>
				<polygon style="clip-path:url(#SVGID_00000137811489932591780260000016569609175090668179_);fill:#158BBC;" points="
					264.5,1905.3 215.5,1903.4 215.5,1902 264.5,1903.9 				"/>
				<polygon style="clip-path:url(#SVGID_00000137811489932591780260000016569609175090668179_);fill:#158ABB;" points="
					264.5,1906.6 215.5,1904.8 215.5,1903.4 264.5,1905.3 				"/>
				<polygon style="clip-path:url(#SVGID_00000137811489932591780260000016569609175090668179_);fill:#1689BA;" points="264.5,1908 
					215.5,1906.1 215.5,1904.8 264.5,1906.6 				"/>
				<polygon style="clip-path:url(#SVGID_00000137811489932591780260000016569609175090668179_);fill:#1688B9;" points="
					264.5,1909.4 215.5,1907.5 215.5,1906.1 264.5,1908 				"/>
				<polygon style="clip-path:url(#SVGID_00000137811489932591780260000016569609175090668179_);fill:#1687B8;" points="
					264.5,1910.7 215.5,1908.9 215.5,1907.5 264.5,1909.4 				"/>
				<polygon style="clip-path:url(#SVGID_00000137811489932591780260000016569609175090668179_);fill:#1686B7;" points="
					264.5,1912.1 215.5,1910.2 215.5,1908.9 264.5,1910.7 				"/>
				<polygon style="clip-path:url(#SVGID_00000137811489932591780260000016569609175090668179_);fill:#1685B6;" points="
					264.5,1913.5 215.5,1911.6 215.5,1910.2 264.5,1912.1 				"/>
				<polygon style="clip-path:url(#SVGID_00000137811489932591780260000016569609175090668179_);fill:#1683B5;" points="
					264.5,1914.8 215.5,1913 215.5,1911.6 264.5,1913.5 				"/>
				<polygon style="clip-path:url(#SVGID_00000137811489932591780260000016569609175090668179_);fill:#1682B4;" points="
					264.5,1916.2 215.5,1914.4 215.5,1913 264.5,1914.8 				"/>
				<polygon style="clip-path:url(#SVGID_00000137811489932591780260000016569609175090668179_);fill:#1681B3;" points="
					264.5,1917.6 215.5,1915.7 215.5,1914.4 264.5,1916.2 				"/>
				<polygon style="clip-path:url(#SVGID_00000137811489932591780260000016569609175090668179_);fill:#1680B2;" points="264.5,1919 
					215.5,1917.1 215.5,1915.7 264.5,1917.6 				"/>
				<polygon style="clip-path:url(#SVGID_00000137811489932591780260000016569609175090668179_);fill:#177FB1;" points="
					264.5,1920.3 215.5,1918.5 215.5,1917.1 264.5,1919 				"/>
				<polygon style="clip-path:url(#SVGID_00000137811489932591780260000016569609175090668179_);fill:#177EB0;" points="
					264.5,1921.7 215.5,1919.8 215.5,1918.5 264.5,1920.3 				"/>
				<polygon style="clip-path:url(#SVGID_00000137811489932591780260000016569609175090668179_);fill:#177DAF;" points="
					264.5,1923.1 215.5,1921.2 215.5,1919.8 264.5,1921.7 				"/>
				<polygon style="clip-path:url(#SVGID_00000137811489932591780260000016569609175090668179_);fill:#177CAE;" points="
					264.5,1924.4 215.5,1922.6 215.5,1921.2 264.5,1923.1 				"/>
				<polygon style="clip-path:url(#SVGID_00000137811489932591780260000016569609175090668179_);fill:#177BAD;" points="
					264.5,1925.8 215.5,1924 215.5,1922.6 264.5,1924.4 				"/>
				<polygon style="clip-path:url(#SVGID_00000137811489932591780260000016569609175090668179_);fill:#177AAC;" points="
					264.5,1927.2 215.5,1925.3 215.5,1924 264.5,1925.8 				"/>
				<polygon style="clip-path:url(#SVGID_00000137811489932591780260000016569609175090668179_);fill:#1779AB;" points="
					264.5,1928.6 215.5,1926.7 215.5,1925.3 264.5,1927.2 				"/>
				<polygon style="clip-path:url(#SVGID_00000137811489932591780260000016569609175090668179_);fill:#1778AA;" points="
					264.5,1929.9 215.5,1928.1 215.5,1926.7 264.5,1928.6 				"/>
				<polygon style="clip-path:url(#SVGID_00000137811489932591780260000016569609175090668179_);fill:#1877A9;" points="
					264.5,1931.3 215.5,1929.4 215.5,1928.1 264.5,1929.9 				"/>
				<polygon style="clip-path:url(#SVGID_00000137811489932591780260000016569609175090668179_);fill:#1876A8;" points="
					264.5,1932.7 215.5,1930.8 215.5,1929.4 264.5,1931.3 				"/>
				<polygon style="clip-path:url(#SVGID_00000137811489932591780260000016569609175090668179_);fill:#1875A7;" points="264.5,1934 
					215.5,1932.2 215.5,1930.8 264.5,1932.7 				"/>
				<polygon style="clip-path:url(#SVGID_00000137811489932591780260000016569609175090668179_);fill:#1874A6;" points="
					264.5,1935.4 215.5,1933.6 215.5,1932.2 264.5,1934 				"/>
				<polygon style="clip-path:url(#SVGID_00000137811489932591780260000016569609175090668179_);fill:#1873A5;" points="
					264.5,1936.8 215.5,1934.9 215.5,1933.6 264.5,1935.4 				"/>
				<polygon style="clip-path:url(#SVGID_00000137811489932591780260000016569609175090668179_);fill:#1872A4;" points="
					264.5,1938.2 215.5,1936.3 215.5,1934.9 264.5,1936.8 				"/>
				<polygon style="clip-path:url(#SVGID_00000137811489932591780260000016569609175090668179_);fill:#1871A4;" points="
					264.5,1939.5 215.5,1937.7 215.5,1936.3 264.5,1938.2 				"/>
				<polygon style="clip-path:url(#SVGID_00000137811489932591780260000016569609175090668179_);fill:#1870A3;" points="
					264.5,1940.9 215.5,1939 215.5,1937.7 264.5,1939.5 				"/>
				<polygon style="clip-path:url(#SVGID_00000137811489932591780260000016569609175090668179_);fill:#196FA2;" points="
					264.5,1942.3 215.5,1940.4 215.5,1939 264.5,1940.9 				"/>
				<polygon style="clip-path:url(#SVGID_00000137811489932591780260000016569609175090668179_);fill:#196EA1;" points="
					264.5,1943.6 215.5,1941.8 215.5,1940.4 264.5,1942.3 				"/>
				<polygon style="clip-path:url(#SVGID_00000137811489932591780260000016569609175090668179_);fill:#196DA0;" points="264.5,1945 
					215.5,1943.1 215.5,1941.8 264.5,1943.6 				"/>
				<polygon style="clip-path:url(#SVGID_00000137811489932591780260000016569609175090668179_);fill:#196C9F;" points="
					264.5,1946.4 215.5,1944.5 215.5,1943.1 264.5,1945 				"/>
				<polygon style="clip-path:url(#SVGID_00000137811489932591780260000016569609175090668179_);fill:#196B9E;" points="
					264.5,1947.8 215.5,1945.9 215.5,1944.5 264.5,1946.4 				"/>
				<polygon style="clip-path:url(#SVGID_00000137811489932591780260000016569609175090668179_);fill:#196A9D;" points="
					264.5,1949.1 215.5,1947.3 215.5,1945.9 264.5,1947.8 				"/>
				<polygon style="clip-path:url(#SVGID_00000137811489932591780260000016569609175090668179_);fill:#19699C;" points="
					264.5,1950.5 215.5,1948.6 215.5,1947.3 264.5,1949.1 				"/>
				<polygon style="clip-path:url(#SVGID_00000137811489932591780260000016569609175090668179_);fill:#19689B;" points="
					264.5,1951.9 215.5,1950 215.5,1948.6 264.5,1950.5 				"/>
				<polygon style="clip-path:url(#SVGID_00000137811489932591780260000016569609175090668179_);fill:#19679A;" points="
					264.5,1953.2 215.5,1951.4 215.5,1950 264.5,1951.9 				"/>
				<polygon style="clip-path:url(#SVGID_00000137811489932591780260000016569609175090668179_);fill:#1A6699;" points="
					264.5,1954.6 215.5,1952.7 215.5,1951.4 264.5,1953.2 				"/>
				<polygon style="clip-path:url(#SVGID_00000137811489932591780260000016569609175090668179_);fill:#1A6598;" points="264.5,1956 
					215.5,1954.1 215.5,1952.7 264.5,1954.6 				"/>
				<polygon style="clip-path:url(#SVGID_00000137811489932591780260000016569609175090668179_);fill:#1A6497;" points="
					264.5,1957.3 215.5,1955.5 215.5,1954.1 264.5,1956 				"/>
				<polygon style="clip-path:url(#SVGID_00000137811489932591780260000016569609175090668179_);fill:#1A6396;" points="
					264.5,1958.7 215.5,1956.9 215.5,1955.5 264.5,1957.3 				"/>
				<polygon style="clip-path:url(#SVGID_00000137811489932591780260000016569609175090668179_);fill:#1A6295;" points="
					264.5,1960.1 215.5,1958.2 215.5,1956.9 264.5,1958.7 				"/>
				<polygon style="clip-path:url(#SVGID_00000137811489932591780260000016569609175090668179_);fill:#1A6194;" points="
					264.5,1961.5 215.5,1959.6 215.5,1958.2 264.5,1960.1 				"/>
				<polygon style="clip-path:url(#SVGID_00000137811489932591780260000016569609175090668179_);fill:#1A6093;" points="
					264.5,1962.8 215.5,1961 215.5,1959.6 264.5,1961.5 				"/>
				<polygon style="clip-path:url(#SVGID_00000137811489932591780260000016569609175090668179_);fill:#1A5F92;" points="
					264.5,1964.2 215.5,1962.3 215.5,1961 264.5,1962.8 				"/>
				<polygon style="clip-path:url(#SVGID_00000137811489932591780260000016569609175090668179_);fill:#1B5E91;" points="
					264.5,1965.6 215.5,1963.7 215.5,1962.3 264.5,1964.2 				"/>
				<polygon style="clip-path:url(#SVGID_00000137811489932591780260000016569609175090668179_);fill:#1B5D90;" points="
					264.5,1966.9 215.5,1965.1 215.5,1963.7 264.5,1965.6 				"/>
				<polygon style="clip-path:url(#SVGID_00000137811489932591780260000016569609175090668179_);fill:#1B5C8F;" points="
					264.5,1968.3 215.5,1966.5 215.5,1965.1 264.5,1966.9 				"/>
				<polygon style="clip-path:url(#SVGID_00000137811489932591780260000016569609175090668179_);fill:#1B5B8E;" points="
					264.5,1969.7 215.5,1967.8 215.5,1966.5 264.5,1968.3 				"/>
				<polygon style="clip-path:url(#SVGID_00000137811489932591780260000016569609175090668179_);fill:#1B5A8D;" points="
					264.5,1971.1 215.5,1969.2 215.5,1967.8 264.5,1969.7 				"/>
				<polygon style="clip-path:url(#SVGID_00000137811489932591780260000016569609175090668179_);fill:#1B598C;" points="
					264.5,1972.4 215.5,1970.6 215.5,1969.2 264.5,1971.1 				"/>
				<polygon style="clip-path:url(#SVGID_00000137811489932591780260000016569609175090668179_);fill:#1B588B;" points="
					264.5,1973.8 215.5,1971.9 215.5,1970.6 264.5,1972.4 				"/>
				<polygon style="clip-path:url(#SVGID_00000137811489932591780260000016569609175090668179_);fill:#1B578A;" points="
					264.5,1975.2 215.5,1973.3 215.5,1971.9 264.5,1973.8 				"/>
				<polygon style="clip-path:url(#SVGID_00000137811489932591780260000016569609175090668179_);fill:#1C5689;" points="
					264.5,1976.5 215.5,1974.7 215.5,1973.3 264.5,1975.2 				"/>
				<polygon style="clip-path:url(#SVGID_00000137811489932591780260000016569609175090668179_);fill:#1C5588;" points="
					264.5,1977.9 215.5,1976.1 215.5,1974.7 264.5,1976.5 				"/>
				<polygon style="clip-path:url(#SVGID_00000137811489932591780260000016569609175090668179_);fill:#1C5487;" points="
					264.5,1979.3 215.5,1977.4 215.5,1976.1 264.5,1977.9 				"/>
				<polygon style="clip-path:url(#SVGID_00000137811489932591780260000016569609175090668179_);fill:#1C5386;" points="
					264.5,1980.7 215.5,1978.8 215.5,1977.4 264.5,1979.3 				"/>
				<polygon style="clip-path:url(#SVGID_00000137811489932591780260000016569609175090668179_);fill:#1C5285;" points="264.5,1982 
					215.5,1980.2 215.5,1978.8 264.5,1980.7 				"/>
				<polygon style="clip-path:url(#SVGID_00000137811489932591780260000016569609175090668179_);fill:#1C5184;" points="
					264.5,1983.4 215.5,1981.5 215.5,1980.2 264.5,1982 				"/>
				<polygon style="clip-path:url(#SVGID_00000137811489932591780260000016569609175090668179_);fill:#1C5083;" points="
					264.5,1984.8 215.5,1982.9 215.5,1981.5 264.5,1983.4 				"/>
				<polygon style="clip-path:url(#SVGID_00000137811489932591780260000016569609175090668179_);fill:#1C4F82;" points="
					264.5,1986.1 215.5,1984.3 215.5,1982.9 264.5,1984.8 				"/>
				<polygon style="clip-path:url(#SVGID_00000137811489932591780260000016569609175090668179_);fill:#1C4E81;" points="
					264.5,1987.5 215.5,1985.6 215.5,1984.3 264.5,1986.1 				"/>
				<polygon style="clip-path:url(#SVGID_00000137811489932591780260000016569609175090668179_);fill:#1D4D80;" points="
					264.5,1988.9 215.5,1987 215.5,1985.6 264.5,1987.5 				"/>
				<polygon style="clip-path:url(#SVGID_00000137811489932591780260000016569609175090668179_);fill:#1D4C7F;" points="
					264.5,1990.3 215.5,1988.4 215.5,1987 264.5,1988.9 				"/>
				<polygon style="clip-path:url(#SVGID_00000137811489932591780260000016569609175090668179_);fill:#1D4B7F;" points="
					264.5,1991.6 215.5,1989.8 215.5,1988.4 264.5,1990.3 				"/>
				<polygon style="clip-path:url(#SVGID_00000137811489932591780260000016569609175090668179_);fill:#1D4A7E;" points="264.5,1993 
					215.5,1991.1 215.5,1989.8 264.5,1991.6 				"/>
				<polygon style="clip-path:url(#SVGID_00000137811489932591780260000016569609175090668179_);fill:#1D497D;" points="
					264.5,1994.4 215.5,1992.5 215.5,1991.1 264.5,1993 				"/>
				<polygon style="clip-path:url(#SVGID_00000137811489932591780260000016569609175090668179_);fill:#1D487C;" points="
					264.5,1995.7 215.5,1993.9 215.5,1992.5 264.5,1994.4 				"/>
				<polygon style="clip-path:url(#SVGID_00000137811489932591780260000016569609175090668179_);fill:#1D477B;" points="
					264.5,1997.1 215.5,1995.2 215.5,1993.9 264.5,1995.7 				"/>
				<polygon style="clip-path:url(#SVGID_00000137811489932591780260000016569609175090668179_);fill:#1D467A;" points="
					264.5,1998.5 215.5,1996.6 215.5,1995.2 264.5,1997.1 				"/>
				<polygon style="clip-path:url(#SVGID_00000137811489932591780260000016569609175090668179_);fill:#1E4579;" points="
					264.5,1999.8 215.5,1998 215.5,1996.6 264.5,1998.5 				"/>
				<polygon style="clip-path:url(#SVGID_00000137811489932591780260000016569609175090668179_);fill:#1E4478;" points="
					264.5,2001.2 215.5,1999.4 215.5,1998 264.5,1999.8 				"/>
				<polygon style="clip-path:url(#SVGID_00000137811489932591780260000016569609175090668179_);fill:#1E4377;" points="
					264.5,2002.6 215.5,2000.7 215.5,1999.4 264.5,2001.2 				"/>
				<polygon style="clip-path:url(#SVGID_00000137811489932591780260000016569609175090668179_);fill:#1E4276;" points="264.5,2004 
					215.5,2002.1 215.5,2000.7 264.5,2002.6 				"/>
				<polygon style="clip-path:url(#SVGID_00000137811489932591780260000016569609175090668179_);fill:#1E4175;" points="
					264.5,2005.3 215.5,2003.5 215.5,2002.1 264.5,2004 				"/>
				<polygon style="clip-path:url(#SVGID_00000137811489932591780260000016569609175090668179_);fill:#1E4074;" points="
					264.5,2006.7 215.5,2004.8 215.5,2003.5 264.5,2005.3 				"/>
				<polygon style="clip-path:url(#SVGID_00000137811489932591780260000016569609175090668179_);fill:#1E3F73;" points="
					264.5,2008.1 215.5,2006.2 215.5,2004.8 264.5,2006.7 				"/>
				<polygon style="clip-path:url(#SVGID_00000137811489932591780260000016569609175090668179_);fill:#1E3E72;" points="
					264.5,2009.4 215.5,2007.6 215.5,2006.2 264.5,2008.1 				"/>
				<polygon style="clip-path:url(#SVGID_00000137811489932591780260000016569609175090668179_);fill:#1F3D71;" points="
					264.5,2010.8 215.5,2009 215.5,2007.6 264.5,2009.4 				"/>
				<polygon style="clip-path:url(#SVGID_00000137811489932591780260000016569609175090668179_);fill:#1F3C70;" points="
					264.5,2012.2 215.5,2010.3 215.5,2009 264.5,2010.8 				"/>
				<polygon style="clip-path:url(#SVGID_00000137811489932591780260000016569609175090668179_);fill:#1F3B6F;" points="
					264.5,2013.6 215.5,2011.7 215.5,2010.3 264.5,2012.2 				"/>
				<polygon style="clip-path:url(#SVGID_00000137811489932591780260000016569609175090668179_);fill:#1F3A6E;" points="
					264.5,2014.9 215.5,2013.1 215.5,2011.7 264.5,2013.6 				"/>
				<polygon style="clip-path:url(#SVGID_00000137811489932591780260000016569609175090668179_);fill:#1F396D;" points="
					243.4,2015.5 215.5,2014.4 215.5,2013.1 264.5,2014.9 264.5,2015.5 				"/>
				<polygon style="clip-path:url(#SVGID_00000137811489932591780260000016569609175090668179_);fill:#1F396D;" points="
					215.5,2014.4 243.4,2015.5 215.5,2015.5 				"/>
			</g>
		</g>
		<g class="st151">
			<path class="st152" d="M230.7,1954.3v-11.9h2.7v8.8h4.5v-8.7h2.7v8.7h4.8v-8.8h2.7v11.9H230.7z"/>
			<path class="st152" d="M235.4,1936.3H248v3h-17.3v-3.1l12.3-8.9h-12.3v-3H248v2.9L235.4,1936.3z"/>
			<path class="st152" d="M245.6,1906l1.6-1.4l1.8,2.1l-1.7,1.5c0.7,1.2,1,2.7,1,4.4c0,5.2-3.8,8.9-9,8.9s-9-3.7-9-8.9
				s3.8-8.9,9-8.9C241.8,1903.7,244,1904.5,245.6,1906z M245.1,1910.1l-2.4,2.2l-1.7-2.1l2.4-2.2c-1.1-0.8-2.4-1.2-4-1.2
				c-3.6,0-6.3,2.3-6.3,5.7c0,3.5,2.7,5.7,6.3,5.7c3.6,0,6.3-2.2,6.3-5.7C245.6,1911.6,245.4,1910.8,245.1,1910.1z"/>
			<path class="st152" d="M230.7,1900.7v-3.1h10.4c2.8,0,4.5-1.5,4.5-4.4c0-2.9-1.8-4.4-4.5-4.4h-10.4v-3.1h10.5
				c4.3,0,7.2,2.5,7.2,7.5c0,5-2.9,7.5-7.2,7.5H230.7z"/>
			<path class="st152" d="M230.7,1882v-3H248v3H230.7z"/>
			<path class="st152" d="M241.5,1869.2v3h6.5v3h-17.3v-7.6c0-3.4,2.2-5.7,5.4-5.7c3.1,0,4.8,2,5.1,4.1l6.8-4.2v3.5L241.5,1869.2z
				 M233.3,1868.1v4.2h5.5v-4.2c0-1.7-1.1-3-2.8-3S233.3,1866.4,233.3,1868.1z"/>
			<path class="st152" d="M230.7,1859v-11.9h2.7v8.8h4.5v-8.7h2.7v8.7h4.8v-8.8h2.7v11.9H230.7z"/>
		</g>
		<g class="st151">
			<path class="st152" d="M247.4,1977.6c0.8,1.3,1.2,2.7,1.2,4.3c0,1.6-0.4,3-1.2,4.3c-0.8,1.3-1.8,2.4-3.1,3.1
				c-1.3,0.8-2.7,1.1-4.3,1.1s-3-0.4-4.3-1.1c-1.3-0.8-2.4-1.8-3.1-3.1c-0.8-1.3-1.1-2.7-1.1-4.3c0-1.6,0.4-3,1.1-4.3
				c0.8-1.3,1.8-2.4,3.1-3.1c1.3-0.8,2.7-1.1,4.3-1.1s3,0.4,4.3,1.1S246.7,1976.2,247.4,1977.6z M239.4,1987.4l5.1-5.1
				c0.1-0.1,0.2-0.3,0.2-0.5s-0.1-0.4-0.2-0.5l-5.1-5.1c-0.1-0.1-0.3-0.2-0.5-0.2s-0.4,0.1-0.5,0.2l-1.1,1.1
				c-0.1,0.1-0.2,0.3-0.2,0.5s0.1,0.4,0.2,0.5l3.4,3.4l-3.4,3.4c-0.1,0.1-0.2,0.3-0.2,0.5s0.1,0.4,0.2,0.5l1.1,1.1
				c0.1,0.1,0.3,0.2,0.5,0.2S239.3,1987.6,239.4,1987.4z"/>
		</g>
	</g>
</g>
</svg>
