<svg id="Group_12" data-name="Group 12" xmlns="http://www.w3.org/2000/svg" width="1592.971" height="431.296" viewBox="0 0 1592.971 431.296">
  <path id="Path_7" data-name="Path 7" d="M-30.8,607.271c-25.3-42.625-64.187-62.6-114.6-64.188-50.2-1.564-89.362,23.818-131.633,52.9V555.816H-406.247V956.77h130.214c0-86.526.835-171.356-.586-256.168-.543-31.648,29.226-46.259,56.862-48.764,14.131-1.273,29.036-.166,42.6,4.136,17.389,5.528,25.739,23,28.724,39.888a133.77,133.77,0,0,1,1.773,23.652c-.083,71.095.271,142.216.439,213.334.021,7.744,0,15.468,0,24.381h135.1V932.762q0-67.786-.251-135.555-.092-34.291-.125-68.574c0-17.7-4.8-42.581,6.533-57.737,10.542-14.067-24.172-33.69-8.308-37.113" transform="translate(406.247 -539.755)" fill="#fff"/>
  <path id="Path_8" data-name="Path 8" d="M-64.9,558.251a233.63,233.63,0,0,0-44.964-11.9c-17.951-2.9-36.32-3.59-54.481-3.484a495.165,495.165,0,0,0-62.665,4.7c-20.665,2.776-41.206,6.408-61.664,10.375-15.926,3.089-31.853,6.343-47.445,10.873V670.326c62.478-19.416,121.551-40.893,187.891-26.846,27.51,5.824,49.554,23.463,50.243,53.854,0,0-59.408,2.591-65.17,3.05-41.539,3.235-83.6,8.348-122.573,23.857-47.218,18.789-83.289,62.664-86.4,114.246-3.11,51.957,30.309,98.757,76.189,121.321,49.077,24.106,107.817,15.634,154.908-9.123,4.968-2.629,43.69-22.713,43.69-27.991v37.344c43.753,0,88.841.291,131.133.291V679.156C33.792,618.1-12.047,578.082-64.9,558.251Zm-33.713,288.19c-.229,5.2-5.3,11.731-10,14.924-29.6,20.081-62.645,27.618-96.564,15.907-12.149-4.2-25.635-17.472-29.537-29.517-6.116-18.807-1.962-39.618,18.787-50.409,11.334-5.889,23.8-10.9,36.3-13.049,26.174-4.466,52.727-6.806,81.471-10.29C-98.154,799.057-97.549,822.788-98.614,846.441Z" transform="translate(1080.328 -542.858)" fill="#fff"/>
  <path id="Path_9" data-name="Path 9" d="M1.229,728.633q.032,34.288.125,68.574Q1.51,865,1.6,932.762v24.467h-135.1c0-8.913.021-16.637,0-24.381-.167-71.118-.522-142.239-.416-213.334a135.757,135.757,0,0,0-1.8-23.652c-2.984-16.886-11.334-34.359-28.722-39.888-13.569-4.3-28.474-5.409-42.6-4.136-27.637,2.5-57.385,17.115-56.861,48.764,1.42,84.812.584,169.642.584,256.168H-393.522V555.816c24.609,0,29.536,63.374,58.488,73.353,20.686,7.139,56.089-23.941,70.723-33.19,42.27-29.077,81.429-54.46,131.632-52.9,50.411,1.589,89.3,21.563,114.6,64.188C.413,635.391,2.878,679.895,1.229,728.633Z" transform="translate(659.105 -539.755)" fill="#fff"/>
  <path id="Path_10" data-name="Path 10" d="M-16.8,543.531A43.18,43.18,0,0,0-57.23,571.522l-69.638,214.986-69.616-214.986a43.182,43.182,0,0,0-40.433-27.991H-351.452l151.857,403.434H-54.121L97.737,543.531Z" transform="translate(1495.234 -529.494)" fill="#fff"/>
</svg>
